<?xml version="1.0" encoding="utf-8"?>
<!-- Generator: Adobe Illustrator 16.0.0, SVG Export Plug-In . SVG Version: 6.00 Build 0)  -->
<!DOCTYPE svg PUBLIC "-//W3C//DTD SVG 1.1 Tiny//EN" "http://www.w3.org/Graphics/SVG/1.1/DTD/svg11-tiny.dtd">
<svg version="1.1" baseProfile="tiny" id="Layer_1" xmlns="http://www.w3.org/2000/svg" xmlns:xlink="http://www.w3.org/1999/xlink"
	 x="0px" y="0px" width="105px" height="55px" viewBox="0 0 105 55" xml:space="preserve">
<g>
	<g>
		<path fill-rule="evenodd" fill="#F16146" d="M50.659,35.253c0.163,4.062,0.353,8.128,0.451,12.196
			c0.022,1.204,0.533,1.461,1.615,1.471c3.133,0.028,5.986-0.775,8.504-2.636c0.725-0.537,1.286-1.284,2.258-2.276
			c-1.238,0-1.969,0-3.173,0c2.088-2.348,3.952-4.439,5.814-6.536c0.187,0.067,0.365,0.133,0.553,0.203
			c-0.162,2.902-0.322,5.808-0.501,9.101c-0.69-0.818-1.072-1.27-1.56-1.843c-1.267,3.16-4.026,4.323-6.57,5.709
			c-3.103,1.696-6.245,1.544-9.316,3.161c-3.879-2.083-7.925-2.35-11.821-4.647c-1.587-0.934-2.843-2.43-4.397-3.801
			c-0.158,0.184-0.508,0.609-1.214,1.456c-0.157-3.244-0.297-6.064-0.436-8.888c0.2-0.102,0.397-0.207,0.597-0.312
			c1.79,1.99,3.583,3.976,5.59,6.204c-1.095,0.065-1.741,0.107-2.899,0.177c0.797,0.91,1.236,1.596,1.844,2.067
			c2.697,2.111,5.8,2.963,9.208,2.844c1.02-0.034,1.167-0.583,1.192-1.415c0.081-2.923,0.242-5.838,0.299-8.76
			c0.056-2.658,0.327-5.314,0.327-7.871c1.228-0.287,2.706-0.807,3.434-0.538"/>
		<path fill-rule="evenodd" fill="#F16146" d="M59.509,15.997c-2.676,0.203-5.449,0.682-8.126,0.895
			c-0.899,0.072-1.173,0.583-1.161,1.48c0.047,3.641,0.266,8.693,0.266,12.398c-0.31,0.016-3.475,1.851-3.429,0.14
			c0.055-1.898,0.018-0.886,0.035-1.282c0.155-3.126,0.145-8.019,0.294-11.141c0.05-1.027-0.29-1.547-1.326-1.662
			c-2.475-0.274-4.944-0.582-7.407-0.876c-0.253-0.343-0.489-0.501,0-1.162c2.533-0.203,5.068-0.383,7.596-0.625
			c0.876-0.085,1.434-0.583,1.392-1.562c-0.041-0.953,0.223-1.882-1.023-2.491c-2.198-1.077-3.138-3.303-2.59-5.473
			c0.563-2.229,2.492-3.691,4.83-3.667c2.342,0.03,4.125,1.463,4.729,3.801c0.523,2.028-0.475,4.351-2.595,5.326
			c-1.383,0.634-0.941,1.652-1.019,2.623c-0.08,1.059,0.654,1.434,1.452,1.48c2.687,0.148,5.394,0.458,8.082,0.544
			C59.798,15.558,59.641,15.248,59.509,15.997z M48.748,2.326c-1.884,0.013-3.489,1.622-3.478,3.483
			c0.014,1.832,1.659,3.494,3.496,3.53c1.832,0.039,3.622-1.78,3.566-3.621C52.272,3.844,50.652,2.311,48.748,2.326z"/>
	</g>
	<g>
		<path fill="#50536B" d="M12.346,27.494c0.161-0.026,0.329-0.047,0.504-0.06c0.174-0.014,0.349-0.021,0.524-0.021
			c0.174,0,0.349,0.007,0.523,0.021c0.175,0.013,0.336,0.034,0.484,0.06v7.073c-0.282,0.12-0.591,0.225-0.927,0.312
			c-0.336,0.087-0.686,0.153-1.048,0.201c-0.363,0.047-0.726,0.084-1.088,0.11c-0.363,0.027-0.705,0.041-1.027,0.041
			c-1.075,0-2.042-0.169-2.902-0.504c-0.86-0.336-1.585-0.823-2.176-1.461c-0.591-0.638-1.044-1.414-1.36-2.327
			c-0.316-0.914-0.474-1.948-0.474-3.104s0.161-2.2,0.483-3.133s0.783-1.729,1.38-2.388c0.598-0.658,1.31-1.165,2.136-1.521
			s1.743-0.534,2.75-0.534c0.766,0,1.431,0.05,1.995,0.151c0.564,0.101,1.075,0.238,1.531,0.413
			c-0.027,0.309-0.084,0.594-0.171,0.856c-0.087,0.262-0.191,0.541-0.312,0.836c-0.376-0.121-0.783-0.228-1.219-0.322
			c-0.437-0.094-0.984-0.141-1.642-0.141c-0.712,0-1.36,0.128-1.944,0.383c-0.584,0.255-1.082,0.628-1.491,1.118
			c-0.41,0.491-0.729,1.095-0.957,1.814c-0.229,0.719-0.343,1.542-0.343,2.468c0,0.954,0.117,1.776,0.353,2.469
			c0.235,0.691,0.567,1.27,0.998,1.732c0.43,0.464,0.937,0.806,1.521,1.027c0.584,0.222,1.232,0.333,1.944,0.333
			c0.43,0,0.806-0.023,1.128-0.07s0.598-0.104,0.826-0.172V27.494z"/>
		<path fill="#50536B" d="M17.686,20.502h7.959c0.041,0.269,0.061,0.564,0.061,0.887c0,0.148-0.003,0.302-0.01,0.463
			s-0.023,0.31-0.05,0.443h-5.904v4.151h4.715c0.027,0.135,0.047,0.279,0.061,0.434s0.021,0.306,0.021,0.453
			c0,0.148-0.007,0.302-0.021,0.463s-0.034,0.309-0.061,0.444h-4.715v4.957h6.065c0.041,0.269,0.061,0.563,0.061,0.886
			c0,0.148-0.003,0.303-0.01,0.464c-0.007,0.161-0.024,0.31-0.051,0.443h-8.12V20.502z"/>
		<path fill="#50536B" d="M28.889,20.502c0.161-0.026,0.346-0.047,0.554-0.06c0.208-0.014,0.406-0.021,0.594-0.021
			s0.393,0.007,0.615,0.021c0.222,0.013,0.406,0.034,0.554,0.06l3.748,9.067l3.768-9.067c0.134-0.026,0.302-0.047,0.504-0.06
			c0.202-0.014,0.396-0.021,0.584-0.021c0.174,0,0.369,0.007,0.584,0.021c0.214,0.013,0.396,0.034,0.544,0.06l0.685,14.488
			c-0.161,0.026-0.326,0.047-0.494,0.061c-0.168,0.013-0.339,0.021-0.514,0.021c-0.175,0-0.346-0.008-0.514-0.021
			c-0.168-0.014-0.326-0.034-0.473-0.061l-0.464-11.264l-3.546,8.262c-0.269,0.04-0.544,0.06-0.826,0.06
			c-0.255,0-0.511-0.02-0.766-0.06l-3.425-8.323L30.138,34.99c-0.148,0.026-0.302,0.047-0.463,0.061
			c-0.161,0.013-0.315,0.021-0.463,0.021c-0.175,0-0.342-0.008-0.504-0.021c-0.161-0.014-0.315-0.034-0.463-0.061L28.889,20.502z"/>
	</g>
	<g>
		<path fill="#50536B" d="M56.636,20.482c0.201-0.027,0.439-0.054,0.715-0.081s0.564-0.05,0.867-0.07
			c0.302-0.021,0.604-0.037,0.906-0.051c0.303-0.013,0.595-0.02,0.877-0.02c0.738,0,1.44,0.074,2.105,0.222
			c0.665,0.148,1.249,0.403,1.753,0.766s0.903,0.843,1.199,1.441c0.295,0.598,0.443,1.347,0.443,2.247
			c0,0.94-0.158,1.723-0.474,2.348c-0.316,0.625-0.732,1.125-1.25,1.5c-0.517,0.377-1.104,0.643-1.763,0.797
			s-1.33,0.231-2.015,0.231c-0.256,0-0.48-0.003-0.676-0.01c-0.194-0.007-0.406-0.023-0.635-0.051v5.239
			c-0.322,0.04-0.664,0.061-1.027,0.061c-0.161,0-0.332-0.004-0.514-0.01c-0.182-0.008-0.353-0.024-0.514-0.051V20.482z
			 M58.69,27.958c0.215,0.027,0.403,0.047,0.564,0.06c0.161,0.014,0.396,0.021,0.705,0.021c0.417,0,0.83-0.044,1.239-0.132
			c0.41-0.087,0.776-0.245,1.099-0.473s0.581-0.541,0.775-0.937c0.195-0.396,0.292-0.91,0.292-1.542
			c0-0.551-0.084-1.014-0.251-1.391c-0.169-0.376-0.4-0.678-0.695-0.907c-0.296-0.228-0.652-0.39-1.068-0.483
			c-0.416-0.094-0.866-0.141-1.35-0.141c-0.497,0-0.935,0.02-1.311,0.061V27.958z"/>
		<path fill="#50536B" d="M73.622,35.232c-1.048,0-1.954-0.186-2.72-0.555s-1.4-0.887-1.904-1.552s-0.88-1.454-1.129-2.367
			c-0.248-0.913-0.372-1.915-0.372-3.002c0-1.088,0.124-2.089,0.372-3.002c0.249-0.914,0.625-1.703,1.129-2.368
			s1.139-1.186,1.904-1.562s1.672-0.564,2.72-0.564s1.955,0.188,2.721,0.564s1.4,0.896,1.904,1.562s0.876,1.454,1.118,2.368
			s0.362,1.914,0.362,3.002c0,1.087-0.12,2.089-0.362,3.002s-0.614,1.702-1.118,2.367s-1.139,1.183-1.904,1.552
			S74.67,35.232,73.622,35.232z M73.622,33.459c0.672,0,1.253-0.131,1.743-0.394c0.49-0.262,0.896-0.641,1.219-1.138
			c0.323-0.497,0.564-1.095,0.726-1.794c0.161-0.698,0.242-1.491,0.242-2.377c0-0.873-0.081-1.663-0.242-2.368
			c-0.161-0.706-0.402-1.303-0.726-1.793c-0.322-0.49-0.729-0.867-1.219-1.128s-1.071-0.393-1.743-0.393s-1.253,0.131-1.742,0.393
			c-0.491,0.262-0.897,0.638-1.22,1.128c-0.322,0.491-0.564,1.088-0.726,1.793c-0.161,0.705-0.241,1.495-0.241,2.368
			c0,0.886,0.08,1.679,0.241,2.377c0.161,0.699,0.403,1.297,0.726,1.794s0.729,0.876,1.22,1.138
			C72.369,33.328,72.95,33.459,73.622,33.459z"/>
		<path fill="#50536B" d="M82.77,20.482c0.295-0.027,0.564-0.054,0.806-0.081c0.242-0.027,0.48-0.05,0.716-0.07
			c0.234-0.021,0.48-0.037,0.735-0.051c0.255-0.013,0.537-0.02,0.847-0.02c0.685,0,1.363,0.067,2.035,0.202
			c0.671,0.134,1.27,0.37,1.793,0.705c0.524,0.336,0.95,0.79,1.279,1.36s0.494,1.293,0.494,2.166c0,0.524-0.088,1.001-0.262,1.431
			c-0.175,0.43-0.396,0.813-0.665,1.148c-0.27,0.336-0.574,0.628-0.917,0.877c-0.343,0.249-0.675,0.453-0.998,0.614l-0.241,0.121
			l4.211,6.105c-0.362,0.04-0.772,0.061-1.229,0.061c-0.363,0-0.726-0.021-1.089-0.061l-4.634-6.71v-0.081l0.161-0.04
			c0.362-0.094,0.745-0.222,1.148-0.383s0.775-0.373,1.118-0.635c0.343-0.262,0.628-0.577,0.856-0.947s0.343-0.816,0.343-1.34
			c0-0.967-0.286-1.686-0.856-2.156c-0.571-0.47-1.34-0.706-2.308-0.706c-0.229,0-0.439,0.007-0.635,0.02
			c-0.194,0.014-0.413,0.034-0.654,0.061V34.99c-0.148,0.014-0.312,0.026-0.494,0.04s-0.353,0.021-0.514,0.021
			s-0.336-0.004-0.523-0.01c-0.188-0.008-0.363-0.024-0.524-0.051V20.482z"/>
		<path fill="#50536B" d="M96.976,22.295h-3.768c-0.027-0.134-0.048-0.282-0.061-0.443c-0.014-0.161-0.021-0.315-0.021-0.463
			c0-0.147,0.007-0.299,0.021-0.453c0.013-0.154,0.033-0.299,0.061-0.434h9.592c0.026,0.135,0.047,0.276,0.06,0.423
			c0.014,0.148,0.021,0.295,0.021,0.443s-0.007,0.306-0.021,0.474c-0.013,0.168-0.033,0.319-0.06,0.453h-3.769V34.99
			c-0.31,0.04-0.645,0.061-1.008,0.061c-0.376,0-0.725-0.021-1.048-0.061V22.295z"/>
	</g>
</g>
<g>
</g>
<g>
</g>
<g>
</g>
<g>
</g>
<g>
</g>
<g>
</g>
</svg>
