<?xml version="1.0" encoding="utf-8"?>
<!-- Generator: Adobe Illustrator 16.0.0, SVG Export Plug-In . SVG Version: 6.00 Build 0)  -->
<!DOCTYPE svg PUBLIC "-//W3C//DTD SVG 1.1//EN" "http://www.w3.org/Graphics/SVG/1.1/DTD/svg11.dtd">
<svg version="1.1" id="Layer_1" xmlns="http://www.w3.org/2000/svg" xmlns:xlink="http://www.w3.org/1999/xlink" x="0px" y="0px"
	 width="300px" height="100px" viewBox="0 0 300 100" enable-background="new 0 0 300 100" xml:space="preserve">
<g>
	<g>
		<path fill="#FFFFFF" d="M33.538,11.438c1.774,0,3.586,0.36,5.434,1.08c1.847,0.72,3.275,1.44,4.283,2.16
			c1.008,0.72,1.919,1.344,2.735,1.872c0.671-0.288,1.271-0.911,1.799-1.872c0.528-0.959,0.839-1.943,0.936-2.951h1.872l-0.216,14.9
			H48.15c-1.393-8.733-6.334-13.101-14.828-13.101c-4.992,0-8.842,1.752-11.553,5.254c-2.711,3.503-4.067,9.382-4.067,17.635
			c0,3.647,0.492,6.971,1.476,9.969c0.983,3,2.615,5.507,4.895,7.521c2.279,2.017,5.05,3.023,8.313,3.023
			c2.351,0,4.643-0.516,6.874-1.548c2.231-1.03,3.946-2.387,5.146-4.065c0.144-1.873,0.216-3.815,0.216-5.832
			c0-1.775-0.072-3.167-0.216-4.175c-1.872-1.104-4.127-1.728-6.766-1.872v-1.583h19.218v1.583c-2.639,0.288-4.343,0.912-5.11,1.872
			c-0.192,0.385-0.288,2.496-0.288,6.334c0,3.167,0.047,6.575,0.144,10.221H50.38l-0.36-1.079c-0.192-0.769-0.696-1.548-1.511-2.341
			c-0.817-0.791-1.8-1.188-2.951-1.188c-1.056,1.583-2.868,2.987-5.435,4.211c-2.567,1.225-5.171,1.835-7.81,1.835
			c-7.054,0-12.825-2.087-17.311-6.262c-4.487-4.175-6.73-9.741-6.73-16.7c0-3.694,0.527-7.018,1.583-9.969
			c1.055-2.951,2.435-5.327,4.139-7.126c1.703-1.8,3.682-3.311,5.938-4.535c2.255-1.224,4.499-2.075,6.73-2.556
			C28.895,11.679,31.186,11.438,33.538,11.438z"/>
		<path fill="#FFFFFF" d="M69.167,42.03v1.583c0,3.455,0.635,6.575,1.907,9.358c1.271,2.782,3.106,4.174,5.506,4.174
			c2.783,0,4.99-0.814,6.622-2.446c1.631-1.632,2.759-3.335,3.383-5.11l2.015,1.439c-0.72,1.824-2.112,3.588-4.175,5.289
			c-2.063,1.703-4.775,2.557-8.133,2.557c-4.079,0-7.475-1.271-10.185-3.814c-2.711-2.543-4.067-6.238-4.067-11.084
			c0-2.831,0.468-5.314,1.404-7.45c0.936-2.135,2.183-3.767,3.743-4.895c1.559-1.127,3.131-1.955,4.715-2.483
			c1.583-0.527,3.214-0.792,4.895-0.792c2.591,0,5.002,0.696,7.234,2.087c2.231,1.392,3.682,3.647,4.354,6.766
			c0.191,0.961,0.288,1.92,0.288,2.879c0,0.529-0.025,1.152-0.072,1.872L69.167,42.03z M69.239,40.95l12.957-0.072
			c0.047-0.815,0.072-1.584,0.072-2.304c0-1.487-0.121-2.687-0.36-3.599c-0.385-1.535-1.164-2.795-2.339-3.779
			c-1.176-0.983-2.627-1.476-4.354-1.476c-1.776,0-3.167,1.008-4.175,3.023C70.031,34.76,69.43,37.495,69.239,40.95z"/>
		<path fill="#FFFFFF" d="M114.298,28.426c4.942,0,7.965,2.328,9.069,6.982c0.959-1.535,1.787-2.723,2.483-3.563
			c0.695-0.839,1.643-1.62,2.843-2.339c1.199-0.72,2.543-1.08,4.031-1.08c6.334,0,9.501,3.815,9.501,11.445v14.755
			c0,0.624,0.288,1.067,0.864,1.332c0.576,0.265,1.332,0.408,2.267,0.433c0.936,0.023,1.5,0.061,1.692,0.107v1.15
			c-1.393-0.144-3.624-0.215-6.694-0.215c-3.311,0-6.238,0.071-8.781,0.215v-1.15c3.167-0.288,4.75-0.792,4.75-1.512
			c0.047,0,0.072-5.471,0.072-16.412c0-2.638-0.36-4.535-1.08-5.686c-0.72-1.152-2.015-1.728-3.887-1.728
			c-1.344,0-2.64,0.457-3.887,1.368c-1.249,0.912-2.16,1.824-2.735,2.735l-0.864,1.368v18.355c0,0.385,0.576,0.72,1.728,1.008
			s2.231,0.456,3.239,0.504v1.15c-2.016-0.144-4.631-0.215-7.846-0.215c-3.503,0-6.287,0.071-8.35,0.215v-1.15
			c3.167-0.145,4.75-0.648,4.75-1.512V38.503c0-2.687-0.288-4.582-0.864-5.687c-0.576-1.103-1.776-1.655-3.599-1.655
			c-1.2,0-2.58,0.684-4.139,2.051c-1.56,1.368-2.675,3.012-3.347,4.931v16.843c0,0.863,1.655,1.367,4.966,1.512v1.15
			c-2.688-0.144-5.567-0.215-8.637-0.215c-2.735,0-4.967,0.071-6.694,0.215v-1.15c0.767,0.048,1.728-0.012,2.879-0.182
			c1.151-0.166,1.728-0.61,1.728-1.33c0.144-6.381,0.216-11.374,0.216-14.972c0-3.983-0.072-7.054-0.216-9.213
			c-0.048-0.528-0.936-0.792-2.664-0.792c-0.624,0-1.272,0.025-1.943,0.072V28.93c0.527,0.048,1.08,0.072,1.656,0.072
			c2.975,0,5.662-0.504,8.062-1.511l0.936,7.702c0.432-0.623,0.839-1.248,1.224-1.872c0.384-0.623,0.839-1.235,1.368-1.835
			c0.527-0.6,1.067-1.116,1.62-1.547c0.551-0.432,1.199-0.792,1.943-1.08C112.702,28.57,113.481,28.426,114.298,28.426z"/>
		<path fill="#FFFFFF" d="M151.512,29.001c3.742,0,7.342-0.456,10.797-1.368l1.008,6.622c1.295-2.062,2.662-3.671,4.103-4.822
			c1.438-1.152,3.239-1.728,5.397-1.728c3.119,0,5.843,1.476,8.17,4.427c2.326,2.951,3.49,6.37,3.49,10.257
			c0,4.223-1.224,7.894-3.67,11.013c-2.447,3.119-5.975,4.679-10.58,4.679c-2.832,0-5.305-1.104-7.414-3.312l0.07,15.836
			c0.336,0.526,1.199,0.959,2.592,1.295c1.392,0.336,2.664,0.504,3.814,0.504l-0.145,1.009c-2.399-0.146-5.447-0.216-9.142-0.216
			s-6.478,0.07-8.351,0.216v-1.009c3.358-0.096,5.039-0.695,5.039-1.799c0.191-5.711,0.312-13.389,0.359-23.034
			c0-6.718-0.07-12.044-0.216-15.979c-1.968-0.911-3.743-1.415-5.326-1.512v-1.08H151.512z M163.459,36.631l-0.646,7.486l0.07,8.71
			c1.919,2.159,4.512,3.237,7.774,3.237c2.016,0,3.551-1.09,4.606-3.273c1.055-2.184,1.582-5.219,1.582-9.105
			c0-3.934-0.503-7.042-1.511-9.321c-1.008-2.279-2.424-3.419-4.247-3.419C167.873,30.945,165.33,32.841,163.459,36.631z"/>
		<path fill="#FFFFFF" d="M204.919,27.634c4.271,0,7.894,1.488,10.868,4.463c2.975,2.976,4.463,6.383,4.463,10.221
			c0,4.655-1.248,8.579-3.743,11.769s-6.166,4.786-11.013,4.786c-10.077,0-15.115-5.494-15.115-16.483
			c0-4.271,1.487-7.797,4.463-10.581C197.816,29.026,201.176,27.634,204.919,27.634z M205.71,57.073
			c2.592,0,4.606-1.198,6.047-3.599c1.438-2.398,2.159-5.854,2.159-10.366c0-3.743-0.77-7.018-2.305-9.825
			c-1.535-2.807-3.551-4.21-6.045-4.21c-1.682,0-3.121,0.457-4.318,1.368c-1.2,0.912-2.076,2.148-2.628,3.707
			c-0.552,1.56-0.96,3.107-1.224,4.643c-0.265,1.536-0.396,3.143-0.396,4.822c0,3.984,0.768,7.223,2.305,9.718
			C200.84,55.826,202.977,57.073,205.71,57.073z"/>
		<path fill="#FFFFFF" d="M246.09,27.706c1.823,0,3.229,0.54,4.211,1.62c0.983,1.08,1.477,2.627,1.477,4.643
			c0,1.2-0.408,2.303-1.225,3.311c-0.816,1.008-1.752,1.512-2.807,1.512c-0.77,0-1.561-0.335-2.376-1.008
			c-0.815-0.671-1.248-1.463-1.295-2.375c0-1.055,0.694-2.062,2.087-3.023c-0.145-0.432-0.396-0.864-0.756-1.296
			c-0.359-0.432-0.924-0.647-1.691-0.647c-1.344,0-2.627,0.732-3.852,2.195c-1.223,1.464-2.1,2.915-2.627,4.354l-0.791,2.231
			l0.144,15.403c0.048,0.961,1.703,1.584,4.968,1.872v1.15c-2.017-0.144-4.633-0.215-7.847-0.215c-3.022,0-5.519,0.071-7.485,0.215
			v-1.15c0.721-0.048,1.666-0.288,2.844-0.721c1.175-0.432,1.764-0.814,1.764-1.151V30.801c-0.624-0.384-2.159-0.623-4.607-0.72
			l-0.144-1.151c2.735,0,5.998-0.479,9.789-1.439l0.792,8.637c0.768-2.062,1.943-3.982,3.525-5.758
			C241.771,28.594,243.738,27.706,246.09,27.706z"/>
	</g>
	<g>
		<path fill="#FFFFFF" d="M261.398,64.602V22.697h-6.047v-0.936c1.151,0,2.556-0.324,4.211-0.972
			c1.654-0.648,2.795-1.355,3.42-2.124c0.623-0.815,1.246-1.979,1.871-3.491c0.623-1.512,0.936-3.011,0.936-4.499h1.656
			c-0.193,1.536-0.289,3.887-0.289,7.054c0,0.337,0,0.864,0,1.584s0,1.271,0,1.655l8.207-0.144l-0.434,1.871h-7.63v44.495"/>
	</g>
	<path fill="#FFFFFF" d="M267.294,57.368c0.271,6.676,0.81,19.271,0.961,25.959c0.047,1.972,0.882,2.401,2.661,2.415
		c5.141,0.04,9.836-1.279,13.971-4.333c1.188-0.877,2.113-2.11,3.704-3.74c-2.028,0-3.231,0-5.206,0
		c3.434-3.854,6.491-7.294,9.549-10.733c0.307,0.105,0.604,0.217,0.906,0.328c-0.262,4.772-0.525,9.545-0.826,14.95
		c-1.133-1.343-1.758-2.078-2.558-3.028c-2.084,5.193-6.612,7.107-10.797,9.385c-5.095,2.783-10.261,5.439-15.308,8.097
		c-6.367-3.42-13.015-6.769-19.416-10.535c-2.604-1.536-4.67-3.993-7.225-6.25c-0.257,0.304-0.834,1.007-1.988,2.396
		c-0.262-5.329-0.488-9.961-0.718-14.604c0.327-0.169,0.653-0.337,0.978-0.51c2.941,3.267,5.886,6.53,9.186,10.194
		c-1.797,0.109-2.855,0.172-4.768,0.289c1.312,1.488,2.037,2.614,3.031,3.394c4.435,3.469,9.53,4.864,15.131,4.675
		c1.681-0.062,1.92-0.959,1.959-2.326c0.134-4.803,0.398-9.595,0.496-14.394c0.086-4.362,0.545-10.888,0.545-15.093"/>
</g>
</svg>
